<!DOCTYPE svg PUBLIC "-//W3C//DTD SVG 1.1//EN" "http://www.w3.org/Graphics/SVG/1.1/DTD/svg11.dtd">
<!-- Uploaded to: SVG Repo, www.svgrepo.com, Transformed by: SVG Repo Mixer Tools -->
<svg fill="#ffffff" version="1.1" id="Capa_1" xmlns="http://www.w3.org/2000/svg" xmlns:xlink="http://www.w3.org/1999/xlink" width="800px" height="800px" viewBox="-4.85 -4.85 58.22 58.22" xml:space="preserve" stroke="#ffffff" stroke-width="0.0004851800000000001" transform="matrix(1, 0, 0, 1, 0, 0)rotate(0)">
<g id="SVGRepo_bgCarrier" stroke-width="0"/>
<g id="SVGRepo_tracerCarrier" stroke-linecap="round" stroke-linejoin="round" stroke="#CCCCCC" stroke-width="0.776288"/>
<g id="SVGRepo_iconCarrier"> <g> <g> <path d="M24.259,0C10.883,0,0,10.883,0,24.259s10.883,24.259,24.259,24.259c13.377,0,24.259-10.883,24.259-24.259 S37.636,0,24.259,0z M24.259,46.74c-12.396,0-22.481-10.086-22.481-22.481c0-12.396,10.085-22.481,22.481-22.481 c12.396,0,22.481,10.085,22.481,22.481C46.74,36.654,36.654,46.74,24.259,46.74z"/> <path d="M20.834,21.56l0.126-0.116l4.655-3.143c-0.436-0.104-0.889-0.164-1.356-0.164c-3.252,0-5.888,2.635-5.888,5.889 c0,0.535,0.078,1.051,0.213,1.543L20.834,21.56z"/> <path d="M26.8,26.912l-0.129,0.115l-3.955,2.672c0.492,0.134,1.007,0.213,1.543,0.213c3.252,0,5.888-2.635,5.888-5.887 c0-0.801-0.173-1.559-0.462-2.254L26.8,26.912z"/> <path d="M24.259,3.58c-11.402,0-20.68,9.277-20.68,20.68c0,11.402,9.278,20.68,20.68,20.68c11.403,0,20.681-9.277,20.681-20.681 C44.939,12.856,35.662,3.58,24.259,3.58z M22.041,5.115h1.603l1.425,1.971h0.016V5.115h1.345V8.67h-1.54l-1.494-1.991h-0.009V8.67 h-1.345V5.115z M9.429,27.027H8.05l-0.483-1.972h-0.01l-0.488,1.972H5.69l-1.036-3.555h1.359l0.459,2.17h0.01l0.522-2.17h1.12 l0.518,2.17h0.011l0.458-2.17h1.359L9.429,27.027z M25.818,43.088c-0.367,0.208-0.946,0.312-1.735,0.312 c-0.269,0-0.537-0.014-0.807-0.039c-0.269-0.027-0.512-0.084-0.729-0.168c-0.217-0.084-0.393-0.205-0.527-0.36 c-0.135-0.155-0.202-0.365-0.202-0.627h1.693c0.003,0.116,0.053,0.2,0.149,0.253c0.103,0.051,0.262,0.074,0.478,0.074 c0.22,0,0.367-0.025,0.443-0.078c0.076-0.055,0.115-0.123,0.115-0.211c0-0.053-0.019-0.102-0.056-0.146 c-0.037-0.044-0.103-0.074-0.199-0.092l-1.603-0.238c-0.173-0.027-0.321-0.07-0.443-0.132c-0.123-0.062-0.224-0.136-0.302-0.222 c-0.078-0.088-0.135-0.184-0.172-0.295c-0.036-0.109-0.055-0.227-0.055-0.354c0-0.229,0.054-0.42,0.159-0.57 c0.106-0.15,0.252-0.271,0.437-0.359c0.184-0.09,0.401-0.152,0.652-0.188c0.25-0.035,0.52-0.053,0.809-0.053 c0.396,0,0.733,0.025,1.016,0.077c0.282,0.051,0.516,0.127,0.7,0.224c0.184,0.1,0.321,0.221,0.413,0.364 c0.091,0.144,0.144,0.312,0.156,0.499h-1.633c0-0.072-0.02-0.132-0.057-0.176c-0.039-0.047-0.091-0.081-0.157-0.108 c-0.063-0.024-0.133-0.045-0.21-0.056c-0.076-0.014-0.152-0.02-0.229-0.02c-0.209,0-0.355,0.023-0.438,0.07 s-0.124,0.107-0.124,0.186c0,0.05,0.013,0.09,0.039,0.121c0.027,0.031,0.075,0.054,0.146,0.062l1.678,0.249 c0.357,0.053,0.639,0.163,0.842,0.331c0.202,0.168,0.303,0.402,0.303,0.705C26.367,42.559,26.185,42.881,25.818,43.088z M31.72,24.941c-0.442,3.424-3.19,6.135-6.635,6.508l-0.816,4.986l-0.817-4.986c-0.831-0.09-1.615-0.326-2.342-0.666l-8.772,5.92 l5.242-9.342c-0.339-0.662-0.592-1.377-0.719-2.137l-5.13-0.84l5.038-0.825c0.199-3.636,2.985-6.587,6.55-7.038l0.831-5.078 l0.826,5.047c0.841,0.078,1.636,0.307,2.372,0.642l7.951-5.366l-4.639,8.266c0.597,0.963,0.984,2.068,1.094,3.255l5.031,0.824 L31.72,24.941z M43.207,23.458v0.866h-2.206v0.479h2.375v0.865h-3.778v-3.555h3.778v0.867h-2.375v0.477H43.207z"/> <path d="M29.158,20.76c-0.004-0.004-0.004-0.007-0.008-0.011l0.889-1.584c0.004,0.003,0.005,0.007,0.008,0.01l2.449-4.366 l-4.195,2.832c0.003,0.002,0.007,0.004,0.01,0.005l-1.558,1.052c-0.003-0.002-0.007-0.003-0.011-0.005l-5.162,3.484l-2.552,4.547 c0.003,0.004,0.004,0.009,0.006,0.013l-0.888,1.584c-0.002-0.004-0.004-0.008-0.007-0.012l-3.001,5.352l5.026-3.395 c-0.003-0.002-0.006-0.004-0.009-0.006l1.453-0.98c0.004,0.002,0.008,0.002,0.012,0.004l4.434-2.993L29.158,20.76z M23.959,25.49 c-0.809,0-1.464-0.656-1.464-1.465s0.655-1.465,1.464-1.465c0.81,0,1.465,0.656,1.465,1.465S24.769,25.49,23.959,25.49z"/> </g> </g> </g>
</svg>